<svg width="760" height="180" viewBox="0 0 760 180" fill="none" xmlns="http://www.w3.org/2000/svg"><rect width="760" height="180" rx="22" fill="#F8FAFC"/><rect x="32" y="30" width="120" height="120" rx="28" fill="#202936"/><path d="M56 120V60h18l18 28 18-28h18v60h-18V88l-16 25h-4L74 88v32H56Z" fill="#fff"/><path d="M128 64h36c18 0 32 14 32 32s-14 32-32 32h-36V64Zm18 18v28h17c8 0 15-6 15-14s-7-14-15-14h-17Z" fill="#0B5FFF" transform="translate(-36 0)"/><path d="M152 55h28M152 125h28M32 90H12M152 90h34" stroke="#35D0FF" stroke-width="8" stroke-linecap="round"/><circle cx="188" cy="90" r="8" fill="#35D0FF"/><text x="190" y="82" font-family="Arial, sans-serif" font-size="42" font-weight="700" fill="#202936">MD Comercio e Servicos</text><text x="192" y="124" font-family="Arial, sans-serif" font-size="22" fill="#475569">Assistencia tecnica B2B para eletronicos</text></svg>
