<svg xmlns="http://www.w3.org/2000/svg" viewBox="0 0 1600 260" role="img" aria-label="MD Comércio e Serviços">
  <defs>
    <linearGradient id="md-blue" x1="0" y1="0" x2="0" y2="1">
      <stop offset="0" stop-color="#0b86d8"/>
      <stop offset="1" stop-color="#082a72"/>
    </linearGradient>
    <linearGradient id="md-dark" x1="0" y1="0" x2="0" y2="1">
      <stop offset="0" stop-color="#7d858d"/>
      <stop offset="1" stop-color="#1f2832"/>
    </linearGradient>
  </defs>
  <rect width="1600" height="260" fill="none"/>

  <g transform="translate(38 38)">
    <path d="M0 172V12h58l115 127L288 12h58v160h-50V76l-101 108h-44L50 76v96H0z" fill="url(#md-blue)"/>

    <path fill-rule="evenodd" clip-rule="evenodd" d="M370 12h104c88 0 146 52 146 86s-58 86-146 86H370V12zm50 43v86h50c56 0 94-25 94-43s-38-43-94-43h-50z" fill="url(#md-dark)"/>

    <g fill="none" stroke="#0b78c9" stroke-linecap="round" stroke-linejoin="round">
      <path d="M304 2v176" stroke-width="10"/>
      <path d="M324 22v58l-46 46v52" stroke-width="7"/>
      <path d="M345 48v50l-32 32v48" stroke-width="7"/>
      <circle cx="304" cy="2" r="15" fill="#ffffff" stroke-width="8"/>
      <circle cx="345" cy="48" r="12" fill="#ffffff" stroke-width="7"/>
      <circle cx="304" cy="178" r="15" fill="#ffffff" stroke-width="8"/>
    </g>
  </g>

  <text x="690" y="151" font-family="Arial, Helvetica, sans-serif" font-size="62" font-weight="800" fill="#202833">
    <tspan fill="#0b63bd">MD</tspan><tspan> Comércio e Serviços</tspan>
  </text>
</svg>
