<svg xmlns="http://www.w3.org/2000/svg" viewBox="0 0 1000 220" role="img" aria-label="MD Comércio e Serviços">
  <defs>
    <linearGradient id="md-blue" x1="0" y1="0" x2="0" y2="1">
      <stop offset="0" stop-color="#0b83d8"/>
      <stop offset="1" stop-color="#082b73"/>
    </linearGradient>
    <linearGradient id="md-dark" x1="0" y1="0" x2="0" y2="1">
      <stop offset="0" stop-color="#6f7882"/>
      <stop offset="1" stop-color="#202833"/>
    </linearGradient>
  </defs>
  <rect width="1000" height="220" fill="none"/>
  <g transform="translate(28 36)">
    <path d="M0 130V0h46l82 92L210 0h46v130h-40V55l-72 79h-32L40 55v75H0z" fill="url(#md-blue)"/>
    <path d="M285 0h96c78 0 125 47 125 115s-47 115-125 115h-96V0zm92 190c55 0 88-30 88-75s-33-75-88-75h-50v150h50z" transform="scale(.57) translate(450 0)" fill="url(#md-dark)"/>
    <g fill="none" stroke="#0b78c9" stroke-linecap="round" stroke-linejoin="round">
      <path d="M224 0v130" stroke-width="9"/>
      <path d="M240 18v43l-33 33v36" stroke-width="6"/>
      <path d="M256 36v38l-23 23v33" stroke-width="6"/>
      <circle cx="224" cy="0" r="13" fill="#fff" stroke-width="8"/>
      <circle cx="256" cy="36" r="10" fill="#fff" stroke-width="7"/>
      <circle cx="224" cy="130" r="13" fill="#fff" stroke-width="8"/>
    </g>
  </g>
  <text x="350" y="133" font-family="Arial, Helvetica, sans-serif" font-size="54" font-weight="800" fill="#202833">
    <tspan fill="#0b63bd">MD</tspan><tspan> Comércio e Serviços</tspan>
  </text>
</svg>
